<svg width="1200" height="1200" viewBox="0 0 1200 1200" fill="none" xmlns="http://www.w3.org/2000/svg">
<path d="M235.03 141.703H150.65V168.559H235.03V141.703Z" fill="#EBEBEB"/>
<path d="M815.808 459.754H731.429V486.61H815.808V459.754Z" fill="#EBEBEB"/>
<path d="M187.961 107.839C173.947 108.074 138.014 108.674 124.488 108.83L103.582 108.934L104.676 107.839L104.782 134.695L103.584 133.498C117.595 133.541 153.329 133.67 166.867 133.865L187.961 134.126L187.392 134.695L187.961 107.839ZM187.961 107.839L188.53 134.695L188.542 135.259L187.961 135.266C177.434 135.406 156.293 135.648 145.771 135.732L103.582 135.895L102.379 135.9L102.384 134.695L102.49 107.839L102.494 106.74L103.584 106.745L124.867 106.848C138.307 106.997 174.079 107.602 187.961 107.839Z" fill="#EBEBEB"/>
<path d="M426.744 686.349C412.73 686.585 376.798 687.185 363.271 687.341L342.365 687.444L343.459 686.349L343.565 713.205L342.367 712.008C356.378 712.051 392.114 712.181 405.65 712.375L426.744 712.637L426.175 713.205L426.744 686.349ZM426.744 686.349L427.313 713.205L427.325 713.767L426.742 713.774C416.215 713.913 395.074 714.156 384.552 714.24L342.362 714.403L341.16 714.408L341.165 713.205L341.27 686.349L341.275 685.25L342.365 685.255L363.648 685.358C377.093 685.505 412.862 686.112 426.744 686.349Z" fill="#EBEBEB"/>
<path d="M379.675 652.485C365.662 652.721 329.729 653.321 316.202 653.477L295.296 653.58L296.39 652.485L296.496 679.342L295.298 678.144C309.31 678.187 345.043 678.317 358.582 678.511L379.675 678.773L379.106 679.342L379.675 652.485ZM379.675 652.485L380.244 679.342L380.256 679.903L379.673 679.91C369.146 680.05 348.007 680.292 337.483 680.376L295.294 680.539L294.091 680.544L294.096 679.342L294.202 652.485L294.206 651.386L295.296 651.391L316.579 651.494C330.024 651.643 365.794 652.248 379.675 652.485Z" fill="#EBEBEB"/>
<path d="M332.794 686.35H248.414V713.206H332.794V686.35Z" fill="#EBEBEB"/>
<path d="M1096.42 107.839H1012.04V134.695H1096.42V107.839Z" fill="#EBEBEB"/>
<path d="M1049.35 937.162H964.97V964.018H1049.35V937.162Z" fill="#EBEBEB"/>
<path d="M1096.42 903.298C1082.4 903.535 1046.47 904.133 1032.94 904.289L1012.04 904.392L1013.13 903.298L1013.24 930.154L1012.04 928.956C1026.05 928.999 1061.78 929.129 1075.32 929.323L1096.42 929.585L1095.85 930.154L1096.42 903.298ZM1096.42 903.298L1096.98 930.154L1097 930.715L1096.42 930.723C1085.89 930.862 1064.75 931.104 1054.23 931.188L1012.04 931.351L1010.83 931.356L1010.84 930.154L1010.94 903.298L1010.95 902.198L1012.04 902.203L1033.32 902.307C1046.76 902.455 1082.53 903.06 1096.42 903.298Z" fill="#EBEBEB"/>
<path d="M235.03 937.161C221.016 937.397 185.083 937.997 171.557 938.153L150.65 938.256L151.745 937.161L151.85 964.017L150.653 962.82L192.842 962.983C203.347 963.067 224.527 963.309 235.032 963.449L234.463 964.017L235.03 937.161ZM235.03 937.161L235.598 964.017L235.61 964.579L235.027 964.586C224.501 964.725 203.359 964.968 192.838 965.052L150.648 965.215L149.446 965.22L149.45 964.017L149.556 937.161L149.561 936.062L150.65 936.067L171.934 936.17C185.376 936.319 221.148 936.924 235.03 937.161Z" fill="#EBEBEB"/>
<path d="M484.963 288.362L480.595 319.567C478.716 332.99 467.222 341.664 453.78 339.782C441.314 338.038 431.685 326.41 433.565 312.986L440.551 263.062C440.616 262.594 441.105 262.661 441.173 262.174C440.75 261.636 440.75 261.636 440.817 261.149C442.565 248.664 455.15 239.167 467.616 240.912C497.863 245.146 525.705 224.578 529.869 194.818C534.101 164.59 512.911 137.638 482.661 133.404C462.984 130.649 444.233 138.804 432.893 153.353C424.577 163.944 409.639 165.758 399.053 157.421C388.951 149.174 387.069 134.705 395.402 124.138C416.841 96.7968 452.294 81.1992 489.245 86.3712C544.934 94.1664 584.205 145.663 576.413 201.331C569.765 248.851 531.067 284.057 484.963 288.362ZM470.251 393.466L469.041 402.101C467.16 415.546 455.666 424.217 442.224 422.335C429.758 420.59 420.129 408.962 422.011 395.518L423.221 386.882C425.033 373.927 437.551 364.922 450.017 366.667C463.459 368.549 472.063 380.513 470.251 393.466Z" fill="#EBEBEB"/>
<path d="M252.446 437.743L259.45 463.176C262.462 474.118 256.507 484.598 245.551 487.615C235.392 490.414 224.131 484.673 221.117 473.731L209.911 433.042C209.806 432.66 210.204 432.55 210.094 432.151C209.59 431.878 209.59 431.878 209.482 431.479C206.678 421.303 213.199 409.829 223.361 407.03C248.014 400.241 262.582 375.19 255.902 350.935C249.118 326.299 223.884 312.619 199.231 319.409C183.194 323.825 171.49 336.317 167.604 351.264C164.729 362.165 153.852 368.518 142.946 365.626C132.444 362.642 126.197 352.145 129.091 341.258C136.49 313.128 158.561 289.368 188.676 281.076C234.065 268.577 281.342 295.118 293.837 340.49C304.502 379.224 286.452 419.129 252.446 437.743ZM276.034 523.406L277.973 530.446C280.99 541.402 275.035 551.882 264.079 554.899C253.92 557.698 242.659 551.957 239.64 541.001L237.701 533.962C234.792 523.404 241.423 512.326 251.582 509.527C262.541 506.513 273.127 512.849 276.034 523.406Z" fill="#EBEBEB"/>
<path d="M376.606 552.223L375.574 571.75C375.13 580.15 368.486 586.126 360.074 585.682C352.274 585.269 345.698 578.594 346.142 570.194L347.794 538.954C347.81 538.661 348.115 538.678 348.132 538.37C347.841 538.061 347.841 538.061 347.858 537.756C348.271 529.942 355.546 523.399 363.346 523.812C382.274 524.813 398.388 510.607 399.372 491.986C400.373 473.069 385.831 457.538 366.902 456.538C354.59 455.887 343.43 461.93 337.197 471.533C332.623 478.524 323.484 480.444 316.493 475.858C309.806 471.3 307.869 462.454 312.458 455.474C324.252 437.424 345.338 425.885 368.462 427.109C403.31 428.952 430.344 458.693 428.501 493.529C426.926 523.26 404.882 547.097 376.606 552.223ZM373.128 617.993L372.842 623.398C372.398 631.81 365.755 637.786 357.343 637.342C349.543 636.929 342.967 630.254 343.411 621.842L343.697 616.438C344.126 608.33 351.384 602.093 359.184 602.506C367.596 602.95 373.558 609.888 373.128 617.993Z" fill="#DBDBDB"/>
<path d="M955.022 197.225H762.974V389.273H955.022V197.225Z" fill="white"/>
<path d="M752.986 187.237V399.26H965.009V187.237H752.986ZM955.02 389.271H762.972V197.225H955.02V389.271Z" fill="#DBDBDB"/>
<path d="M941.201 352.077V285.691H791.522V352.077H941.201Z" fill="#EBEBEB"/>
<path d="M897.349 331.595V254.903H820.654V331.595H897.349Z" fill="#C7C7C7"/>
<path d="M973.205 187.231H965.018V399.264H973.205V187.231Z" fill="#C7C7C7"/>
<path d="M1054.28 479.441H862.229V671.489H1054.28V479.441Z" fill="white"/>
<path d="M945.384 510.173H895.238V655.027H945.384V510.173Z" fill="#C7C7C7"/>
<path d="M852.242 469.452V681.475H1064.27V469.452H852.242ZM1054.28 671.487H862.229V479.439H1054.28V671.487Z" fill="#DBDBDB"/>
<path d="M996.595 537.122H919.91V613.805H996.595V537.122Z" fill="#EBEBEB"/>
<path d="M1072.46 469.45H1064.28V681.482H1072.46V469.45Z" fill="#C7C7C7"/>
<path d="M113.863 1050.57L235.397 1049.99L356.93 1049.78L600 1049.38L843.07 1049.78L964.603 1049.99L1086.14 1050.57L964.603 1051.16L843.07 1051.37L600 1051.77L356.93 1051.37L235.397 1051.16L113.863 1050.57Z" fill="#263238"/>
<path d="M690.67 583.733C811.786 710.27 962.563 974.868 932.916 1027.6C899.892 1086.34 731.254 908.974 732.065 898.776C732.679 891.07 674.83 730.853 630.874 614.297C586.956 497.851 660.72 552.442 690.67 583.733Z" fill="#D3766A"/>
<path d="M730.915 898.949C725.938 881.837 647.124 670.529 624.686 603.746C602.249 536.964 624.286 516.732 690.312 578.585C756.338 640.44 899.962 845.918 931.814 954.3C962.501 1058.71 909 1057.9 839.126 1008.93C781.92 968.844 730.915 898.949 730.915 898.949Z" fill="#FFC727"/>
<path d="M619.392 551.232C618.936 551.064 618.48 550.896 618 550.68C618.192 550.08 618.432 549.528 618.744 548.976C619.656 549.336 620.592 549.672 621.528 549.984C629.088 552.408 638.352 553.176 644.976 547.968C645.744 547.368 646.44 546.696 647.04 546C647.64 546.288 648.24 546.6 648.864 546.912C642.096 555.024 629.088 554.784 619.392 551.232ZM671.592 562.272C670.968 561.768 670.344 561.288 669.744 560.808C668.688 561.312 667.632 561.792 666.576 562.248C651.456 568.896 632.784 575.592 619.704 586.824C619.896 587.568 620.088 588.336 620.28 589.104C627.024 582.96 635.304 578.28 643.416 574.464C652.656 570.12 662.328 566.592 671.592 562.272ZM688.416 607.296C692.856 601.848 697.704 596.184 703.2 591.456C702.72 590.928 702.216 590.424 701.736 589.92C687.936 601.944 678.048 620.256 664.92 631.896C658.104 637.968 649.056 644.04 639.576 646.416C639.792 647.04 640.008 647.664 640.248 648.288C646.824 646.56 653.136 643.2 658.512 639.48C670.896 630.936 679.08 618.816 688.416 607.296ZM756.6 654.816C736.632 681.912 700.416 688.416 668.64 693.216C664.8 693.792 660.96 694.416 657.12 695.184C657.384 695.88 657.624 696.6 657.888 697.32C671.304 694.584 685.104 693.432 698.448 690.384C720.696 685.296 744 674.76 757.992 656.616C757.992 656.592 757.992 656.592 757.992 656.592C757.512 655.992 757.056 655.416 756.6 654.816ZM783.792 888.408C770.064 884.976 757.584 889.536 745.512 895.92C741.552 898.032 737.544 900.264 733.464 902.352C733.872 902.88 734.328 903.48 734.832 904.128C751.104 895.752 766.776 885.312 785.52 891.408C791.64 893.4 797.496 897.312 799.896 903.504C803.016 911.448 799.512 919.728 793.968 925.608C786.216 933.792 775.632 937.056 765.384 940.92C765.96 941.568 766.56 942.24 767.16 942.912C770.088 941.76 773.04 940.632 776.016 939.456C788.232 934.632 802.584 925.728 803.472 911.04C804.168 899.112 794.52 891.072 783.792 888.408ZM736.032 741.984C745.728 728.328 754.632 714.144 764.304 700.464C768.48 694.536 772.872 688.464 777.672 682.776C777.216 682.152 776.76 681.552 776.304 680.928C773.736 683.952 771.312 687.048 768.96 690.168C759.216 703.104 750.48 716.76 741.408 730.152C727.728 750.336 711.672 773.064 690.6 787.056C690.864 787.8 691.128 788.52 691.416 789.264C709.44 777.312 723.96 758.952 736.032 741.984ZM740.928 778.056C739.176 789.552 744.792 802.224 754.368 808.8C765.552 816.48 778.056 811.752 786 801.912C790.704 796.104 794.088 789.432 798.288 783.288C803.136 776.16 808.968 769.56 815.88 764.4C819.936 761.376 824.472 758.88 829.224 757.128C828.768 756.432 828.312 755.736 827.856 755.04C824.88 756.168 822.024 757.584 819.312 759.24C805.752 767.496 797.496 780.24 789.192 793.32C784.92 799.992 779.784 807.096 771.888 809.616C764.952 811.824 757.872 809.28 752.712 804.456C741.192 793.704 740.448 777.168 749.136 764.52C758.352 751.128 774.264 743.928 789.264 739.176C796.944 736.752 804.864 734.712 812.616 732.24C812.184 731.592 811.728 730.944 811.296 730.296C795.696 735.312 779.064 738.816 765.696 746.736C754.2 753.528 743.04 764.256 740.928 778.056ZM868.032 819.6C861.72 827.544 853.512 834.192 845.232 839.568C831.216 848.64 814.92 854.856 798.192 856.08C781.296 857.328 765.192 852.864 751.92 842.232C740.52 833.064 730.344 821.688 715.2 819.192C710.928 818.472 706.56 818.4 702.24 818.928C702.552 819.768 702.84 820.584 703.152 821.4C709.08 820.776 715.104 821.328 720.768 823.224C728.736 825.888 735.312 831.336 741.552 836.736C747.576 841.968 753.528 847.32 760.56 851.16C767.232 854.784 774.576 857.088 782.064 858.144C797.112 860.208 812.568 857.496 826.584 851.928C841.776 845.928 858.36 835.608 869.4 821.928C868.944 821.16 868.488 820.392 868.032 819.6ZM868.152 1026.94C870.384 1028.14 872.592 1029.26 874.752 1030.3C882.264 1031.81 889.152 1034.9 895.872 1038.5C898.8 1039.32 901.632 1039.92 904.344 1040.33C896.856 1035.98 889.296 1031.81 881.04 1029.38C876.936 1028.16 872.568 1027.3 868.152 1026.94ZM880.224 840.864C879.864 840.24 879.528 839.616 879.168 838.992C858.912 843.336 840 857.832 832.464 876.288C826.512 890.856 829.992 905.112 836.352 918.912C839.976 926.784 844.104 934.464 846.744 942.768C849.12 950.256 850.416 958.08 850.656 965.928C851.112 981.336 847.248 996.576 839.52 1009.2C840.144 1009.66 840.768 1010.09 841.392 1010.5C847.32 1000.87 851.088 989.736 852.384 978.072C853.992 963.6 851.928 948.744 846.36 935.256C839.808 919.32 828.672 903.624 832.032 885.528C836.088 863.76 857.52 845.592 880.224 840.864ZM933.168 959.016C926.592 961.008 919.944 962.784 913.08 963.648C904.92 964.656 895.08 964.296 890.28 956.496C886.824 950.832 887.448 943.56 889.32 937.464C893.424 924.168 904.176 916.536 914.328 908.112C914.064 907.44 913.752 906.768 913.44 906.096C908.328 910.296 902.952 914.256 898.344 918.672C890.088 926.592 883.944 939.168 885.888 950.832C888.288 965.472 903.168 967.512 915.528 965.592C920.88 964.776 927.072 962.952 933.672 960.936C933.528 960.312 933.36 959.664 933.168 959.016Z" fill="white"/>
<path opacity="0.1" d="M839.129 1008.95C781.932 968.844 730.922 898.937 730.922 898.937C725.95 881.844 647.119 670.541 624.698 603.737C616.409 579.055 614.182 560.741 618.019 550.586L839.129 1008.95Z" fill="black"/>
<path d="M727.027 1050.14H259.332C259.332 1050.14 355.001 678.394 513.036 524.549C534.25 503.899 616.783 507.377 635.796 538.454C707.112 655.032 728.335 1048.49 727.027 1050.14Z" fill="#FFC727"/>
<path d="M667.56 841.872C649.176 867.984 669.168 903.552 698.472 909.696C704.808 911.04 710.832 910.584 716.64 909.096C716.712 909.912 716.784 910.704 716.856 911.496C711.48 912.888 705.888 913.416 700.032 912.504C673.968 908.448 652.08 880.68 659.016 854.232C664.392 833.616 685.32 819.264 706.248 818.616C706.344 819.48 706.464 820.32 706.584 821.184C704.784 821.208 703.008 821.352 701.232 821.616C688.008 823.488 675.288 830.928 667.56 841.872ZM279.432 983.976C279.192 983.784 278.952 983.568 278.712 983.376C278.448 984.168 278.208 984.96 277.968 985.752C296.232 1000.85 300 1028.04 305.856 1050.14H308.28C302.016 1027.03 298.608 1000.32 279.432 983.976ZM357.528 849.624C371.808 848.712 386.304 843.936 395.016 831.96C401.736 822.72 405.24 809.712 400.272 798.912C394.512 786.408 380.448 783.096 367.872 783.408C362.424 783.528 357.048 784.056 351.696 784.656C351.36 785.424 351.024 786.216 350.688 787.008C359.544 785.904 368.376 784.92 377.136 786.12C384.864 787.176 392.472 790.56 396.792 797.328C400.488 803.16 400.968 810.36 399.432 816.96C395.784 832.68 382.968 842.592 367.704 845.904C354.192 848.832 340.44 847.248 326.832 845.304C326.544 846.048 326.256 846.768 325.968 847.488C336.768 848.976 347.448 850.272 357.528 849.624ZM377.664 1024.56C364.032 1022.06 342.144 1035.17 334.8 1017.36C329.28 1004.02 337.176 989.112 345.648 979.08C355.944 966.912 369.24 957.816 382.368 948.96C406.608 932.568 465.336 882.384 437.304 861.12C411.168 841.32 377.592 899.088 357.936 917.208C340.56 933.192 315.12 947.664 290.256 947.304C290.016 948.024 289.776 948.72 289.536 949.44C314.664 949.872 339.504 935.568 358.176 920.088C382.752 899.736 406.968 846.816 435.36 863.04C458.928 876.504 414.984 923.712 390.648 940.488C378.384 948.96 365.64 956.904 354.456 966.84C344.568 975.624 334.872 986.472 331.872 999.72C329.664 1009.51 330.792 1022.09 340.752 1027.22C347.088 1030.51 354.264 1029.26 360.96 1027.99C369.384 1026.36 377.28 1025.38 385.104 1029.62C393.264 1034.04 398.688 1041.62 400.944 1050.14H403.512C403.512 1050.1 403.488 1050.07 403.488 1050.02C400.296 1037.88 390.312 1026.89 377.664 1024.56ZM548.76 728.328C536.448 721.464 522 722.112 510.456 730.224C498.384 738.72 491.088 752.448 485.448 765.696C479.16 780.504 473.52 796.824 461.208 807.864C454.584 813.84 444.144 819.072 436.008 812.712C430.704 808.536 428.688 801.168 428.496 794.664C428.04 780.744 436.344 767.592 444.648 757.08C453.24 746.16 463.272 736.488 471.936 725.616C479.976 715.536 487.032 704.04 488.928 691.056C489.864 684.648 489 677.712 483.672 673.416C479.376 669.96 473.472 669.12 468.096 669.624C454.464 670.944 442.824 680.856 434.616 691.176C429.96 697.008 426.072 703.392 422.592 709.968C418.872 717.048 416.112 724.608 412.344 731.616C407.976 739.776 400.464 743.736 391.392 740.952C385.176 739.032 380.376 735 376.632 730.008C376.296 730.704 375.96 731.4 375.648 732.096C382.32 740.28 392.304 746.664 402.936 743.208C409.68 741 413.304 734.904 416.088 728.784C419.304 721.68 422.424 714.552 426.216 707.736C433.824 694.032 444.408 679.992 459.432 673.92C465.744 671.376 473.856 670.344 480.096 673.632C488.808 678.216 487.704 688.92 485.424 697.008C477.792 723.816 452.568 740.76 437.52 763.056C430.608 773.28 424.872 785.616 426.504 798.264C427.992 809.64 436.056 820.224 448.704 817.464C463.512 814.248 473.16 798.624 479.184 786C486.048 771.696 490.656 756.216 500.424 743.448C510.216 730.632 525.192 722.136 541.44 727.68C558.84 733.608 568.8 750.792 569.448 768.528C570.648 800.856 547.92 827.616 524.616 847.128C502.248 865.872 476.976 881.136 456.288 901.896C433.416 924.816 418.416 954.984 413.736 987.024C410.832 1006.78 410.856 1030.54 418.848 1050.14H421.872C419.448 1044.31 417.768 1038.17 416.64 1032.12C410.496 999.144 417.984 963.432 434.496 934.512C450.408 906.648 475.416 887.568 500.736 868.776C523.008 852.24 546.312 835.008 560.424 810.504C575.328 784.608 578.904 745.08 548.76 728.328ZM626.688 880.944C625.776 866.16 619.008 852.144 606.456 843.84C595.08 836.28 580.776 835.872 569.232 843.288C557.688 850.68 550.224 863.76 547.368 876.936C543.216 896.016 546.672 915.6 547.056 934.848C547.416 953.28 545.04 971.736 540.144 989.52C535.32 1007.04 528 1023.91 518.424 1039.39C516.144 1043.06 513.696 1046.66 511.032 1050.14H514.296C522.24 1039.58 528.528 1027.7 533.688 1015.68C540.696 999.408 545.496 982.2 547.872 964.632C550.392 946.104 549.216 927.936 548.232 909.36C547.296 891.552 547.872 872.904 558.264 857.688C567.408 844.296 583.392 836.016 599.256 842.76C615.336 849.552 623.88 866.28 624.336 883.128C625.296 917.856 600.36 947.016 583.224 974.976C575.064 988.272 567.744 1002.34 564.312 1017.65C561.912 1028.33 561.6 1039.39 563.256 1050.14H565.704C563.808 1037.98 564.432 1025.42 567.816 1013.4C576.624 982.176 599.592 957.696 614.256 929.304C621.912 914.448 627.744 897.888 626.688 880.944ZM696.408 986.592C687.48 975.936 674.544 968.856 660.36 970.248C647.4 971.52 636.024 979.8 633.24 992.928C630.048 1008.05 638.016 1023.74 646.32 1035.86C649.536 1040.57 653.184 1045.3 656.664 1050.14H659.376C652.848 1040.78 645.528 1031.9 640.56 1021.56C633.36 1006.58 631.032 986.04 647.76 976.416C661.944 968.232 679.416 972.984 690.72 983.736C702.96 995.4 708.696 1012.06 712.104 1028.21C713.616 1035.34 714.768 1042.7 715.92 1050.14H718.2C714.816 1027.44 711.408 1004.47 696.408 986.592ZM548.88 512.184C547.56 512.304 546.264 512.448 544.992 512.616C539.568 519.072 533.04 524.64 526.224 529.296C516.528 535.896 505.896 540.624 494.736 543.6C493.776 544.704 492.792 545.784 491.808 546.912C494.52 546.36 497.208 545.664 499.848 544.824C517.44 539.256 536.688 527.856 548.88 512.184ZM552.24 578.736C549.216 573.072 548.76 566.376 550.152 560.16C552.84 547.968 562.584 536.208 575.352 534.12C591.888 531.432 604.944 545.976 619.392 551.232C626.736 553.92 635.952 554.712 642.96 551.424C642.696 550.848 642.408 550.296 642.144 549.768C635.88 552.936 628.056 552.072 621.528 549.984C606.84 545.28 595.032 531.672 578.784 531.864C557.064 532.152 540.624 559.632 550.08 579C553.368 585.72 559.56 590.28 565.08 595.08C570.696 599.952 575.28 605.472 578.304 612.312C583.728 624.696 584.208 639.624 578.712 652.056C573.24 664.44 561.96 673.08 548.232 673.464C535.872 673.8 522.864 668.16 515.208 658.32C511.464 653.52 509.136 647.712 508.992 641.592C508.776 633.384 511.872 625.416 513.912 617.592C516.96 605.952 517.416 590.688 504.096 585.36C493.416 581.064 480.768 586.416 472.416 593.208C461.256 602.256 456.744 616.536 450.504 628.968C443.832 642.24 434.088 654.84 418.224 656.28C417.216 656.376 416.232 656.424 415.248 656.424C414.816 657.192 414.384 657.984 413.928 658.752C414.144 658.776 414.336 658.776 414.552 658.776C427.368 658.896 438.072 652.224 445.488 642.024C454.224 629.976 457.968 615.144 466.416 602.904C473.592 592.512 489.048 582.912 502.056 587.016C520.992 592.992 511.488 616.416 508.368 629.52C505.536 641.352 506.856 652.512 515.232 661.776C530.664 678.792 559.8 681.048 574.872 662.496C590.328 643.44 587.016 612.816 569.472 596.232C563.592 590.664 556.152 586.104 552.24 578.736ZM621.192 647.832C633.936 652.608 648 646.752 658.512 639.48C663.096 636.312 667.08 632.688 670.8 628.752C670.608 628.056 670.416 627.36 670.224 626.688C668.52 628.512 666.744 630.264 664.92 631.896C653.856 641.712 637.008 651.576 621.84 645.816C606.216 639.888 602.904 621.648 607.848 607.32C613.416 591.168 628.704 581.376 643.416 574.464C646.152 573.192 648.912 571.968 651.696 570.792C651.48 570.168 651.216 569.568 650.952 568.944C628.44 578.712 604.872 591.36 603.504 618.336C602.88 630.912 608.976 643.248 621.192 647.832ZM700.752 779.4C690.96 787.728 679.992 794.328 667.536 797.76C650.376 802.512 632.976 798.384 622.08 783.768C617.256 777.312 613.992 769.824 611.616 762.192C608.664 752.664 606.528 742.248 609.144 732.384C613.512 715.824 629.4 705.456 644.856 700.608C658.104 696.432 672.024 695.04 685.752 692.808C685.584 692.04 685.44 691.272 685.296 690.504C679.68 691.512 674.088 692.4 668.64 693.216C652.44 695.664 635.808 698.976 622.608 709.296C610.32 718.92 604.08 732.672 606.072 748.296C607.968 763.128 613.896 779.4 624.528 790.2C635.136 800.976 650.04 803.952 664.536 800.88C678.288 797.952 690.384 790.992 701.136 781.992C700.992 781.128 700.872 780.264 700.752 779.4Z" fill="white"/>
<path d="M928.562 1025.02C895.034 1059.82 827.901 1062.91 636.461 1069.95C609.969 1070.92 552.806 885.816 581.042 883.325C616.608 880.186 755.304 875.702 765.49 876.655C851.386 884.693 951.307 1001.42 928.562 1025.02Z" fill="#D3766A"/>
<path d="M642.638 887.791C642.638 887.791 567.214 871.02 524.861 874.474C468.146 879.098 421.087 906.444 402.058 919.092C362.335 945.497 284.549 1036.8 306.936 1063.79C327.204 1088.23 402 990.881 402 990.881C402 990.881 309.36 1077.55 339.17 1102.48C368.983 1127.41 449.381 1009.47 449.381 1009.47C449.381 1009.47 356.194 1100.66 391.003 1121.51C417.31 1137.26 496.145 1034.54 496.145 1034.54C496.145 1034.54 416.59 1113.47 442.946 1130.84C472.07 1150.03 550.79 1059.78 550.79 1059.78C625.214 1092.65 674.098 1077.86 707.621 1063.19C715.738 1059.65 642.638 887.791 642.638 887.791Z" fill="#D3766A"/>
<path d="M432.122 958.855C420.871 968.642 409.418 978.473 399.077 989.225C388.735 999.979 378.758 1011.1 369.466 1022.77C346.668 1051.38 336.871 1072.87 337.62 1071.61C355.354 1041.78 391.778 1002.72 402.125 991.958C412.445 981.228 422.227 969.977 432.545 959.234C432.806 958.963 432.389 958.622 432.122 958.855Z" fill="#263238"/>
<path d="M471.629 995.491C457.805 1008.61 443.599 1021.13 430.349 1034.86C417.166 1048.53 405.852 1062.65 393.643 1077.18C392.702 1078.31 393.614 1078.44 394.603 1077.36C407.383 1063.32 420.281 1051.32 433.224 1037.44C446.124 1023.6 458.58 1009.15 471.97 995.796C472.178 995.587 471.84 995.295 471.629 995.491Z" fill="#263238"/>
<path d="M511.193 1020.84C489.038 1039.8 470.41 1062.84 452.678 1085.87C451.795 1087.01 452.99 1087.06 453.962 1085.94C473.006 1063.96 487.79 1046.58 511.858 1021.61C512.23 1021.22 511.658 1020.44 511.193 1020.84Z" fill="#263238"/>
<path d="M603.11 878.129L737.182 1085.01C737.182 1085.01 902.746 1069.75 933.653 1031.39C953.998 1006.14 852.643 877.939 757.056 876.278L603.11 878.129Z" fill="#FFC727"/>
<path d="M626.688 880.944C627.288 890.376 625.728 899.712 622.92 908.688L621.312 906.192C623.424 898.752 624.552 891.096 624.336 883.128C624.288 881.376 624.144 879.6 623.904 877.872L626.4 877.848C626.52 878.88 626.616 879.912 626.688 880.944ZM662.712 970.104L664.152 972.312C673.896 972.504 683.544 976.896 690.72 983.736C702.96 995.4 708.696 1012.06 712.104 1028.21C713.808 1036.2 715.032 1044.48 716.304 1052.81L719.28 1057.42C715.416 1032.43 713.016 1006.39 696.408 986.592C687.984 976.536 675.984 969.648 662.712 970.104ZM846.36 935.256C841.656 923.76 834.528 912.408 832.176 900.168C831.432 899.712 830.688 899.28 829.944 898.848C830.928 905.616 833.328 912.312 836.352 918.912C839.976 926.784 844.104 934.464 846.744 942.768C849.12 950.256 850.416 958.08 850.656 965.928C851.616 997.536 834.312 1028.52 802.776 1037.4C774.408 1045.39 742.224 1033.13 734.28 1003.06C730.944 990.456 732.024 976.368 738.264 964.824C746.304 949.92 761.184 945.336 776.016 939.456C788.232 934.632 802.584 925.728 803.472 911.04C804.168 899.112 794.52 891.072 783.792 888.408C770.064 884.976 757.584 889.536 745.512 895.92C730.848 903.672 715.8 913.344 698.472 909.696C681.648 906.168 667.896 892.968 662.712 877.416L659.808 877.44C665.424 895.056 681.696 909.648 700.032 912.504C731.328 917.376 754.152 881.208 785.52 891.408C791.64 893.4 797.496 897.312 799.896 903.504C803.016 911.448 799.512 919.728 793.968 925.608C781.824 938.424 762.768 939.144 748.848 949.152C729.096 963.36 725.52 992.232 735.552 1013.28C747.384 1038.12 777.048 1046.57 802.344 1039.87C830.976 1032.29 849.216 1006.85 852.384 978.072C853.992 963.6 851.928 948.744 846.36 935.256ZM907.704 966.192C907.128 965.472 906.528 964.752 905.952 964.032C899.784 963.864 893.736 962.112 890.28 956.496C888.024 952.8 887.496 948.408 887.952 944.088C887.256 943.392 886.56 942.696 885.864 942C885.432 944.928 885.408 947.904 885.888 950.832C887.784 962.472 897.576 966.12 907.704 966.192ZM881.04 1029.38C869.712 1026.02 856.416 1025.42 845.472 1030.49C833.808 1035.86 828.864 1047.34 830.472 1059.82C830.952 1063.54 831.84 1067.18 832.752 1070.81C833.424 1070.69 834.096 1070.54 834.768 1070.42C832.32 1060.58 830.376 1050.77 835.728 1041.82C842.64 1030.3 858.048 1028.14 870.264 1029.55C885.576 1031.33 898.272 1039.92 911.424 1047.24C912.312 1046.81 913.176 1046.35 914.04 1045.92C903.264 1039.9 892.872 1032.86 881.04 1029.38Z" fill="white"/>
<path d="M864.3 922.889C816.192 883.692 799.925 876.912 724.176 875.964C723.562 875.957 723.434 876.756 724.061 876.785C807.12 880.546 845.467 911.239 863.75 923.494C864.23 923.815 864.737 923.244 864.3 922.889Z" fill="#263238"/>
<path d="M786.461 1061.7C772.934 1038.17 758.17 1015.38 743.34 992.628C728.498 969.862 713.702 947.059 698.294 924.665C689.59 912.012 680.954 899.299 671.81 886.951C671.57 886.627 670.97 886.946 671.182 887.311C684.674 910.814 699.362 933.694 714.017 956.503C728.705 979.368 743.647 1002.1 758.791 1024.67C767.347 1037.43 776.136 1050.03 785.275 1062.39C785.726 1063 786.857 1062.4 786.461 1061.7Z" fill="#263238"/>
<path opacity="0.1" d="M772.188 877.543L772.157 877.567L661.826 968.731L603.108 878.134L757.073 876.266C758.89 876.298 760.699 876.384 762.53 876.502L771.151 877.438L772.188 877.543Z" fill="black"/>
<path d="M456.607 652.416C436.946 874.32 467.659 1051.09 560.822 1063.81C622.702 1072.26 607.205 884.63 607.061 880.622C606.571 866.897 599.436 752.39 555.574 627.842C507.319 490.829 465.391 553.282 456.607 652.416Z" fill="#D3766A"/>
<path d="M456.607 652.416C436.946 874.32 467.659 1051.09 560.822 1063.81C622.702 1072.26 631.356 914.035 631.214 910.027C630.725 896.302 599.438 752.39 555.576 627.842C507.319 490.829 465.391 553.282 456.607 652.416Z" fill="#FFC727"/>
<path d="M560.954 643.625C574.505 685.426 586.846 727.594 598.819 769.87C610.231 812.273 622.39 854.64 629.551 898.018C613.306 823.514 581.191 718.243 560.954 643.625Z" fill="#263238"/>
<path d="M572.422 653.998C575.501 665.894 577.802 678.787 574.97 690.931C575.333 678.756 573.067 666.149 572.422 653.998Z" fill="#263238"/>
<path d="M466.416 602.904C465.336 604.464 464.352 606.048 463.392 607.68C463.896 605.448 464.424 603.264 464.976 601.128C467.112 598.224 469.536 595.536 472.416 593.208C480.768 586.416 493.416 581.064 504.096 585.36C517.416 590.688 516.96 605.952 513.912 617.592C511.872 625.416 508.776 633.384 508.992 641.592C509.136 647.712 511.464 653.52 515.208 658.32C522.864 668.16 535.872 673.8 548.232 673.464C555.912 673.248 562.848 670.44 568.392 665.832C568.656 666.576 568.896 667.32 569.136 668.088C553.272 680.328 528.888 676.824 515.232 661.776C506.856 652.512 505.536 641.352 508.368 629.52C511.488 616.416 520.992 592.992 502.056 587.016C489.048 582.912 473.592 592.512 466.416 602.904ZM488.928 691.056C489.864 684.648 489 677.712 483.672 673.416C479.376 669.96 473.472 669.12 468.096 669.624C463.44 670.056 459.024 671.52 454.872 673.68C454.8 674.52 454.728 675.36 454.68 676.2C456.216 675.336 457.8 674.568 459.432 673.92C465.744 671.376 473.856 670.344 480.096 673.632C488.808 678.216 487.704 688.92 485.424 697.008C479.832 716.64 464.808 730.992 451.272 746.016C451.224 747.096 451.2 748.176 451.2 749.232C458.088 741.336 465.408 733.824 471.936 725.616C479.976 715.536 487.032 704.04 488.928 691.056ZM560.424 810.504C575.328 784.608 578.904 745.08 548.76 728.328C536.448 721.464 522 722.112 510.456 730.224C498.384 738.72 491.088 752.448 485.448 765.696C479.16 780.504 473.52 796.824 461.208 807.864C458.52 810.288 455.208 812.592 451.68 814.032C451.728 814.896 451.752 815.736 451.8 816.576C464.88 812.016 473.592 797.712 479.184 786C486.048 771.696 490.656 756.216 500.424 743.448C510.216 730.632 525.192 722.136 541.44 727.68C558.84 733.608 568.8 750.792 569.448 768.528C570.648 800.856 547.92 827.616 524.616 847.128C503.328 864.96 479.424 879.648 459.336 898.92C459.504 900.048 459.672 901.176 459.864 902.28C472.344 890.016 486.504 879.336 500.736 868.776C523.008 852.24 546.312 835.008 560.424 810.504ZM614.256 929.304C621.36 915.504 626.904 900.24 626.808 884.568C626.808 883.344 626.76 882.168 626.688 880.944C626.28 874.32 624.696 867.864 621.936 862.008C618.552 854.76 613.392 848.424 606.456 843.84C595.08 836.28 580.776 835.872 569.232 843.288C557.688 850.68 550.224 863.76 547.368 876.936C543.216 896.016 546.672 915.6 547.056 934.848C547.416 953.28 545.04 971.736 540.144 989.52C535.32 1007.04 528 1023.91 518.424 1039.39C517.896 1040.26 517.344 1041.1 516.792 1041.96C517.44 1042.58 518.112 1043.18 518.784 1043.78C524.664 1034.93 529.536 1025.35 533.688 1015.68C540.696 999.408 545.496 982.2 547.872 964.632C550.392 946.104 549.216 927.936 548.232 909.36C547.296 891.552 547.872 872.904 558.264 857.688C567.408 844.296 583.392 836.016 599.256 842.76C615.336 849.552 623.88 866.28 624.336 883.128C625.296 917.856 600.36 947.016 583.224 974.976C575.064 988.272 567.744 1002.34 564.312 1017.65C561.048 1032.14 561.648 1047.31 565.776 1061.54C566.016 1062.41 566.304 1063.27 566.568 1064.14C567.384 1064.11 568.2 1064.06 568.992 1063.97C563.736 1047.74 563.136 1030.03 567.816 1013.4C576.624 982.176 599.592 957.696 614.256 929.304Z" fill="white"/>
<path d="M452.369 682.846C452.102 737.014 453.494 791.246 457.992 845.22C463.687 912.718 479.546 1055.04 565.949 1061.76C579.49 1062.58 591.955 1059.94 602.897 1051.47C619.291 1039.73 633.002 1024.64 646.147 1009.38C672.24 978.542 695.904 944.352 717.843 911.117L712.582 905.77L718.027 910.927L718.102 910.999C711.183 922.702 703.865 934.164 696.41 945.535C674.453 978.293 623.786 1053.59 586.555 1064.3C540.962 1074.4 506.686 1043.09 488.266 1004.44C447.506 918.206 449.95 778.418 452.369 682.846Z" fill="#263238"/>
<path d="M447.905 696.271C449.069 706.538 450.739 716.453 451.853 726.73C448.315 717.067 446.585 706.526 447.905 696.271Z" fill="#263238"/>
<path d="M610.745 643.195C610.745 643.195 530.899 570.146 480.859 573.545L439.608 612.708C439.608 612.708 425.801 617.753 421.188 609.05C409.781 587.532 405.881 534.694 450.24 498.83C490.862 465.991 576.624 469.558 634.056 482.657C689.208 495.235 720.41 526.414 704.827 562.634C689.246 598.855 610.745 643.195 610.745 643.195Z" fill="#FFC727"/>
<path opacity="0.1" d="M615.667 626.249C615.667 626.249 676.879 579.391 682.466 552.588C688.054 525.785 634.056 502.229 599.395 493.438C545.75 479.832 509.683 484.452 480.859 513.804C452.038 543.158 615.667 626.249 615.667 626.249Z" fill="black"/>
<path d="M624.509 617.323C595.894 620.926 552.571 573.139 537.362 536.551C536.335 534.038 542.647 509.453 548.904 479.218C552.631 460.855 556.344 440.321 558.382 421.337C558.78 417.437 674.335 463.037 674.335 463.037C674.335 463.037 658.361 501.574 655.013 534.689C654.763 537.461 654.761 540.062 654.996 542.566C654.998 542.928 655.056 543.372 655.03 543.874C655.853 558.934 652.162 613.822 624.509 617.323Z" fill="#D3766A"/>
<path d="M642.737 543.202C647.182 543.785 651.24 544.022 655.02 543.866C655.042 543.36 654.994 542.94 654.989 542.551C654.746 540.06 654.761 537.461 655.03 534.679C658.38 501.59 674.328 463.049 674.328 463.049C674.328 463.049 580.538 426.026 561.662 421.536C562.982 443.863 572.686 534.11 642.737 543.202Z" fill="#263238"/>
<path d="M520.51 325.802C517.507 370.092 567.132 484.476 602.739 504.269C654.36 532.968 725.031 520.421 745.915 461.534C766.162 404.453 698.856 256.531 660.372 239.966C603.689 215.57 524.942 260.381 520.51 325.802Z" fill="#D3766A"/>
<path d="M653.947 373.57C653.762 373.303 653.501 374.194 653.647 374.506C657.197 382.121 659.978 391.442 654.091 396.994C653.909 397.164 654.098 397.543 654.341 397.397C662.35 392.551 658.531 380.215 653.947 373.57Z" fill="#263238"/>
<path d="M643.601 368.458C630.78 372.83 640.469 398.15 652.346 394.099C664.037 390.115 654.348 364.793 643.601 368.458Z" fill="#263238"/>
<path d="M701.654 354.11C701.599 353.789 702.41 354.247 702.523 354.571C705.276 362.508 709.762 371.136 717.854 371.028C718.106 371.026 718.236 371.429 717.958 371.491C708.833 373.586 702.989 362.071 701.654 354.11Z" fill="#263238"/>
<path d="M705.526 343.238C717.775 337.454 728.441 362.378 717.094 367.735C705.926 373.01 695.256 348.086 705.526 343.238Z" fill="#263238"/>
<path d="M632.714 369.458C636.35 368.328 639.514 366.677 642.996 365.186C646.922 363.504 650.222 362.57 652.651 358.834C653.952 356.83 653.177 353.402 651.348 351.955C647.09 348.583 641.77 349.45 636.96 351.281C631.742 353.268 628.229 356.134 625.442 360.962C622.74 365.642 627.919 370.946 632.714 369.458Z" fill="#263238"/>
<path d="M706.166 322.248C702.437 323.018 698.87 323.107 695.105 323.486C690.854 323.916 687.516 324.694 683.582 322.598C681.47 321.475 680.494 318.103 681.391 315.948C683.484 310.939 688.558 309.12 693.653 308.393C699.18 307.606 703.644 308.414 708.42 311.29C713.047 314.081 711.084 321.23 706.166 322.248Z" fill="#263238"/>
<path d="M674.153 446.352C676.735 447.47 679.577 449.28 682.514 448.43C685.332 447.614 688.061 445.159 690.192 443.232C690.403 443.042 690.754 443.208 690.686 443.506C689.801 447.295 686.239 450.818 682.358 451.572C678.571 452.311 675.641 449.914 673.536 446.995C673.241 446.587 673.776 446.191 674.153 446.352Z" fill="#263238"/>
<path d="M678.996 433.99C687.413 426.187 700.692 422.501 709.171 420.365C710.023 419.88 710.153 417.778 709.97 416.866L709.946 416.808C709.831 416.525 703.008 400.43 703.008 400.43C705.612 400.675 718.668 401.357 717.283 398.306C705.715 373.099 692.856 345.07 676.022 322.426C675.504 321.65 674.278 322.351 674.683 323.174C684.84 347.842 699.269 370.555 709.865 395.17C705.792 395.198 699.041 394.951 695.945 396.226C695.191 396.799 704.177 413.186 704.93 415.973C704.93 415.973 687.264 417.377 677.544 430.618C675.022 434.057 674.983 437.71 678.996 433.99Z" fill="#263238"/>
<path d="M546.029 434.357C565.363 432.583 570.907 400.886 571.248 388.277C571.589 375.665 553.87 328.668 556.166 309.086C558.463 289.505 576.643 276.612 592.654 275.405C608.664 274.198 634.459 286.063 644.714 281.054C654.97 276.046 648.787 252.082 656.184 249.271C672.463 243.086 694.625 276.612 704.33 293.347C704.33 293.347 683.33 211.85 596.974 235.63C518.222 257.314 513.655 319.214 515.724 344.657C519.691 393.398 546.029 434.357 546.029 434.357Z" fill="#263238"/>
<path d="M661.632 425.347C646.322 429.758 629.345 423.449 620.928 409.08C610.978 392.083 616.704 370.169 633.694 360.218C650.688 350.263 672.6 355.99 682.553 372.979C692.498 389.966 686.774 411.886 669.787 421.841C667.164 423.377 664.428 424.541 661.632 425.347ZM643.174 361.301C640.754 361.997 638.378 363.005 636.11 364.334C621.391 372.953 616.435 391.942 625.049 406.666C633.674 421.378 652.673 426.353 667.375 417.722C682.094 409.099 687.053 390.113 678.437 375.391C671.143 362.95 656.441 357.478 643.174 361.301Z" fill="#EBEBEB"/>
<path d="M737.026 393.228C723.895 397.01 708.111 386.995 700.896 369.818C697.255 361.15 696.293 351.936 698.191 343.879C700.143 335.544 704.904 329.407 711.586 326.602C718.289 323.772 725.981 324.696 733.303 329.136C740.381 333.43 746.283 340.567 749.919 349.234C757.536 367.387 752.743 386.774 739.234 392.45C738.504 392.753 737.772 393.012 737.026 393.228ZM715.145 330.401C714.567 330.569 713.995 330.768 713.436 331.003C708.202 333.199 704.436 338.16 702.833 344.969C701.175 352.054 702.046 360.221 705.293 367.968C711.9 383.693 726.259 392.729 737.383 388.044C748.471 383.39 752.117 366.806 745.522 351.082C742.27 343.334 737.05 336.991 730.824 333.214C725.484 329.976 719.991 329.004 715.145 330.401Z" fill="#EBEBEB"/>
<path d="M683.05 377.256L678.802 375.07C682.035 368.782 691.217 358.294 702.867 363.523L700.91 367.877C690.482 363.178 683.35 376.685 683.05 377.256Z" fill="#EBEBEB"/>
<path d="M539.904 447.312L535.145 446.933C535.327 444.713 537.142 425.086 546.3 419.364C554.873 414.041 616.198 394.8 618.802 393.986L620.225 398.544C602.638 404.042 555.442 419.282 548.832 423.415C542.784 427.19 540.339 441.946 539.904 447.312Z" fill="#EBEBEB"/>
<path d="M576.54 419.398C576.54 419.398 539.902 387.778 524.89 401.794C509.878 415.807 544.241 466.404 566.654 468.828C589.068 471.252 591.718 450.547 591.718 450.547L576.54 419.398Z" fill="#D3766A"/>
<path d="M535.099 416.052C534.763 416.107 534.816 416.585 535.13 416.628C550.966 418.798 561.907 430.195 570.706 442.656C565.087 438.427 558.533 436.992 552.703 443.88C552.398 444.24 552.905 444.737 553.286 444.547C558.85 441.794 563.352 441.737 568.522 445.44C572.182 448.061 575.174 451.793 578.167 455.131C579.166 456.245 581.309 454.968 580.445 453.614C580.38 453.514 580.31 453.413 580.243 453.31C575.959 434.914 555.223 412.903 535.099 416.052Z" fill="#263238"/>
<path d="M615.667 626.249C615.667 626.249 550.164 523.39 472.404 515.602L480.859 573.542C480.859 573.542 527.047 572.11 610.745 643.193L615.667 626.249Z" fill="#FFC727"/>
<path d="M460.025 575.306C474.139 573.072 488.323 575.741 501.761 579.487C515.287 583.291 528.122 589.19 540.406 595.963C552.794 602.573 564.425 610.541 575.854 618.739L592.49 631.778L608.542 645.588L610.342 647.138L612.259 646.075C626.551 638.143 640.123 629.277 653.143 619.526C659.621 614.628 666.036 609.619 671.894 603.965C677.779 598.368 683.467 592.507 688.145 585.89C677.069 597.701 663.934 607.034 650.664 616.008C643.997 620.465 637.128 624.622 630.194 628.646C623.268 632.657 616.286 636.698 609.233 640.322L612.948 640.807L596.861 626.534C591.312 621.989 585.643 617.57 579.962 613.178C574.032 609.113 568.183 604.922 562.104 601.075C555.883 597.439 549.799 593.587 543.254 590.52C530.484 583.848 516.792 578.863 502.733 575.652C499.238 574.783 495.641 574.296 492.094 573.708C488.498 573.379 484.915 572.957 481.313 572.916C474.149 572.664 466.843 573.139 460.025 575.306Z" fill="#263238"/>
<path d="M439.608 612.708C447.418 607.166 454.51 600.866 461.434 594.389C468.266 587.818 474.926 581.062 480.859 573.542C473.042 579.079 465.953 585.377 459.034 591.859C452.206 598.44 445.548 605.196 439.608 612.708Z" fill="#263238"/>
<path d="M586.027 605.76C586.027 605.76 582.197 636.173 585.031 679.442C586.152 696.569 598.051 757.32 616.863 753.458C635.671 749.594 601.286 712.702 593.047 680.832C584.683 648.478 591.396 624.526 590.868 605.062L586.027 605.76Z" fill="#FFC727"/>
<g opacity="0.1">
<path d="M586.027 605.76C586.027 605.76 582.197 636.173 585.031 679.442C586.152 696.569 598.051 757.32 616.863 753.458C635.671 749.594 601.286 712.702 593.047 680.832C584.683 648.478 591.396 624.526 590.868 605.062L586.027 605.76Z" fill="black"/>
</g>
<path d="M650.203 608.803C650.203 608.803 661.347 634.27 669.994 672.631C673.416 687.816 678.672 743.71 661.32 745.178C643.968 746.65 664.399 705.732 663.379 675.898C662.345 645.61 650.355 626.503 645.814 609.439L650.203 608.803Z" fill="#FFC727"/>
<g opacity="0.1">
<path d="M650.203 608.803C650.203 608.803 661.347 634.27 669.994 672.631C673.416 687.816 678.672 743.71 661.32 745.178C643.968 746.65 664.399 705.732 663.379 675.898C662.345 645.61 650.355 626.503 645.814 609.439L650.203 608.803Z" fill="black"/>
</g>
<path d="M578.172 1050.37C629.225 1042.51 712.91 927.458 765.967 795.914C776.066 770.875 581.705 669.679 574.02 697.505C549.353 786.818 501.048 903.622 502.603 975.679C503.813 1031.72 542.863 1055.81 578.172 1050.37Z" fill="#D3766A"/>
<path d="M669.077 602.784C656.681 587.604 654.797 545.194 643.687 520.181C632.578 495.168 600.077 483.43 594.259 492.636C588.439 501.845 597.036 511.087 599.683 552.175C601.387 578.599 581.17 631.394 589.805 679.344C594.142 703.44 681.473 617.962 669.077 602.784Z" fill="#F7A9A0"/>
<path d="M669.077 602.784C656.681 587.604 654.797 545.194 643.687 520.181C632.578 495.168 600.077 483.43 594.259 492.636C588.439 501.845 597.036 511.087 599.683 552.175C601.387 578.599 581.17 631.394 589.805 679.344C594.142 703.44 681.473 617.962 669.077 602.784Z" fill="#D3766A"/>
<path opacity="0.06" d="M669.077 602.784C656.681 587.604 654.797 545.194 643.687 520.181C632.578 495.168 600.077 483.43 594.259 492.636C588.439 501.845 597.036 511.087 599.683 552.175C601.387 578.599 581.17 631.394 589.805 679.344C594.142 703.44 681.473 617.962 669.077 602.784Z" fill="black"/>
<path d="M765.682 473.73C783.022 489.915 739.488 529.287 739.488 529.287C739.488 529.287 755.311 525.025 769.061 532.695C784.807 541.477 777.941 570.02 777.941 570.02C777.941 570.02 794.851 569.022 808.56 578.583C822.787 588.505 819.962 618.294 819.962 618.294C819.962 618.294 836.222 626.017 842.143 642.781C852.264 671.442 820.589 705.846 805.188 731.017C788.688 757.978 768.005 791.439 756.144 808.026L570.271 713.473C570.271 713.473 602.114 571.314 627.341 546.987C648.593 526.489 739.178 448.99 765.682 473.73Z" fill="#D3766A"/>
<path d="M738.662 529.181C710.839 545.549 686.986 568.541 664.212 590.983C663.706 591.482 664.495 592.27 664.997 591.763C687.386 569.182 716.354 552.043 739.596 530.4C740.239 529.802 739.411 528.739 738.662 529.181Z" fill="#263238"/>
<path d="M775.603 568.99C769.421 572.882 764.542 578.801 759.641 584.136C754.366 589.882 749.196 595.716 744.113 601.632C733.937 613.474 724.027 625.548 714.485 637.906C714.06 638.453 714.794 639.238 715.27 638.686C725.431 626.902 735.773 615.271 746.419 603.924C751.747 598.246 757.128 592.615 762.543 587.016C767.58 581.81 773.328 576.737 777.113 570.499C777.672 569.58 776.534 568.402 775.603 568.99Z" fill="#263238"/>
<path d="M819.518 618.775C814.008 621.941 809.861 628.339 805.874 633.178C801.35 638.669 796.795 644.136 792.211 649.577C783.043 660.458 773.87 671.333 764.328 681.888C763.853 682.414 764.63 683.196 765.113 682.668C774.864 671.995 784.757 661.454 794.412 650.693C799.154 645.408 803.868 640.099 808.548 634.764C812.53 630.228 818.021 625.01 820.085 619.214C820.198 618.89 819.792 618.614 819.518 618.775Z" fill="#263238"/>
<path d="M744.926 468.907C713.374 481.975 675.542 509.748 653.386 526.944C645.194 533.472 637.03 540.115 629.59 547.45C622.25 554.813 617.46 564.211 612.785 573.487C609.612 579.751 606.89 586.243 604.212 592.776C609.005 575.969 614.77 558.13 626.714 544.711C634.044 536.921 642.286 530.112 650.558 523.409C672.898 506.256 695.784 488.866 721.759 477.655L744.926 468.907Z" fill="#263238"/>
<path d="M533.976 749.434L717.934 911.018C717.934 911.018 621.744 1066.49 576.898 1063.43C532.054 1060.38 483.379 1031.35 486.948 923.527C487.843 896.52 533.976 749.434 533.976 749.434Z" fill="#FFC727"/>
<path d="M500.736 868.776C499.968 869.352 499.2 869.904 498.432 870.504C498.768 869.208 499.128 867.912 499.464 866.592C507.984 860.28 516.504 853.944 524.616 847.128C545.088 829.992 565.128 807.24 568.848 780.048L570.672 781.656C569.04 791.88 565.344 801.936 560.424 810.504C546.312 835.008 523.008 852.24 500.736 868.776ZM606.456 843.84C595.08 836.28 580.776 835.872 569.232 843.288C557.688 850.68 550.224 863.76 547.368 876.936C543.216 896.016 546.672 915.6 547.056 934.848C547.416 953.28 545.04 971.736 540.144 989.52C535.416 1006.7 528.288 1023.26 518.952 1038.5C519.6 1039.18 520.272 1039.82 520.944 1040.45C525.864 1032.53 530.04 1024.15 533.688 1015.68C540.696 999.408 545.496 982.2 547.872 964.632C550.392 946.104 549.216 927.936 548.232 909.36C547.296 891.552 547.872 872.904 558.264 857.688C567.408 844.296 583.392 836.016 599.256 842.76C615.336 849.552 623.88 866.28 624.336 883.128C625.296 917.856 600.36 947.016 583.224 974.976C575.064 988.272 567.744 1002.34 564.312 1017.65C561.048 1032.14 561.648 1047.31 565.776 1061.54C565.824 1061.74 565.896 1061.95 565.968 1062.14C566.808 1062.29 567.672 1062.43 568.536 1062.55C563.712 1046.74 563.256 1029.55 567.816 1013.4C576.624 982.176 599.592 957.696 614.256 929.304C621.912 914.448 627.744 897.888 626.688 880.944C625.776 866.16 619.008 852.144 606.456 843.84ZM660.36 970.248C647.4 971.52 636.024 979.8 633.24 992.928C631.272 1002.29 633.576 1011.89 637.584 1020.7C638.136 1020.05 638.736 1019.4 639.312 1018.75C633.144 1004.11 632.064 985.44 647.76 976.416C656.304 971.496 666.048 971.256 674.904 974.208C675.384 973.56 675.84 972.912 676.344 972.264C671.328 970.464 665.928 969.696 660.36 970.248ZM715.944 909.264C710.352 910.608 704.544 910.968 698.472 909.696C675.816 904.944 658.728 882.624 660.624 860.688L658.152 858.504C654.432 883.584 675.36 908.664 700.032 912.504C706.248 913.464 712.128 912.816 717.816 911.232C717.888 911.088 717.936 911.016 717.936 911.016L715.944 909.264Z" fill="white"/>
<path d="M531.934 816.259C540.934 823.769 549.346 832.075 557.887 840.096C566.441 848.131 574.918 856.25 583.286 864.48C600.019 880.937 616.661 897.47 633.089 914.232C637.581 918.816 642.067 923.41 646.478 928.075C651.204 933.072 655.308 938.659 660.062 943.594C660.434 943.98 659.858 944.546 659.47 944.179C655.289 940.219 650.539 936.833 646.27 932.95C641.846 928.925 637.51 924.802 633.206 920.65C624.758 912.504 616.337 904.334 607.956 896.119C591.206 879.696 574.522 863.172 558.319 846.204C549.168 836.618 539.652 827.218 531.077 817.106C530.57 816.511 531.341 815.765 531.934 816.259Z" fill="#263238"/>
<path d="M554.808 767.731L533.554 749.916L534.588 749.633C524.465 787.752 513.312 825.581 502.843 863.573C498.413 880.078 493.644 896.621 490.884 913.483C488.064 935.294 488.136 957.437 490.69 979.493C485.405 957.893 483.703 935.198 485.638 912.888C490.838 876.058 502.666 840.506 513.658 805.109C519.905 786.031 526.541 767.081 533.714 748.32L534.401 748.951L554.808 767.731Z" fill="#263238"/>
<path d="M1082.22 821.51C1050.75 864.132 1017.94 913.598 1009.95 967.049C1009.85 967.858 1011.15 968.122 1011.34 967.32C1014.99 952.658 1019.61 938.424 1025.25 924.523C1045.94 918.83 1066.25 914.153 1077.12 893.616C1088.2 872.506 1086.79 844.982 1084.68 821.986C1084.54 820.752 1082.87 820.692 1082.22 821.51Z" fill="#FFC727"/>
<path d="M1025.56 924.122C1039.7 892.397 1057.85 860.542 1080.92 834.451C1081.08 834.276 1081.32 834.528 1081.18 834.706C1066.07 853.286 1054.6 873.523 1043.39 894.11C1053.81 883.531 1065.23 874.056 1075.09 862.838C1075.29 862.62 1075.59 862.937 1075.41 863.155C1065.61 874.915 1054.9 887.698 1042.14 896.402C1038.71 902.719 1035.26 909.058 1031.76 915.391C1032.61 914.914 1033.5 914.484 1034.38 914.05C1034.53 913.973 1034.67 914.203 1034.52 914.282C1033.54 914.774 1032.58 915.295 1031.58 915.72C1029.92 918.718 1028.28 921.72 1026.57 924.71C1026.19 925.375 1025.27 924.792 1025.56 924.122Z" fill="#263238"/>
<path d="M1036.08 913.054C1044.52 908.218 1052.65 903.019 1060.24 896.926C1060.45 896.76 1060.74 897.046 1060.54 897.221C1053.08 903.531 1045.13 909.18 1036.43 913.647C1036.04 913.848 1035.7 913.274 1036.08 913.054Z" fill="#263238"/>
<path d="M1006.31 959.102C1006.37 959.75 1007.47 959.738 1007.46 959.05C1007.62 941.448 1007.47 923.765 1007.74 906.082C1012.25 896.981 1021.92 891.946 1028.65 884.652C1033.51 879.389 1037.66 873.454 1041.21 867.173C1049.53 852.281 1054.04 835.536 1055.77 818.616C1057.63 799.788 1050.48 737.659 1042.55 739.817C1038.43 740.935 1025.11 771.708 1021.58 781.882C1015.8 798.617 1011.72 815.959 1009.05 833.462C1002.62 874.884 1003.16 917.419 1006.31 959.102Z" fill="#FFC727"/>
<path d="M1006.18 883.171C1006.21 883.15 1006.23 883.126 1006.26 883.102C1007.22 860.83 1012.24 838.339 1016.94 816.737C1022 793.466 1027.92 771.554 1039.89 750.797C1040.11 750.41 1040.68 750.751 1040.48 751.145C1032.33 767.201 1026.51 784.25 1022.05 801.758C1022.85 800.503 1023.82 799.313 1024.66 798.13C1024.98 797.664 1025.76 798.099 1025.43 798.583C1024.26 800.338 1023.2 802.382 1021.69 803.868C1021.64 803.918 1021.59 803.923 1021.53 803.94C1017.41 820.572 1014.45 837.588 1011.92 854.558C1012.11 854.342 1012.29 854.112 1012.48 853.903C1012.61 853.764 1012.83 853.942 1012.74 854.102C1012.43 854.664 1012.08 855.223 1011.73 855.785C1010.46 864.401 1009.28 872.998 1008.09 881.52C1023.42 868.411 1036.52 852.958 1043.91 833.918C1043.95 833.832 1044.09 833.868 1044.06 833.959C1036.82 853.709 1025.41 871.265 1007.84 883.246C1007.52 885.543 1007.2 887.839 1006.87 890.124C1006.81 890.599 1006.05 890.474 1006.05 890.014C1006.06 887.986 1006.16 885.95 1006.24 883.918C1006.02 883.718 1005.92 883.392 1006.18 883.171Z" fill="#263238"/>
<path d="M1013.4 850.901C1025.13 833.407 1036.08 816.418 1044.65 797.081C1044.75 796.865 1045.12 797.021 1045.03 797.242C1037.81 816.454 1027.68 835.92 1013.99 851.352C1013.71 851.669 1013.17 851.254 1013.4 850.901Z" fill="#263238"/>
<path d="M1028.98 792.761C1033.84 784.169 1038.96 775.81 1043.53 767.047C1043.66 766.802 1044 767.019 1043.89 767.259C1040.06 776.213 1035.48 785.304 1029.73 793.198C1029.41 793.639 1028.7 793.258 1028.98 792.761Z" fill="#263238"/>
<path d="M1027.09 796.498C1027.18 796.498 1027.18 796.649 1027.09 796.649C1026.99 796.647 1026.99 796.498 1027.09 796.498Z" fill="#263238"/>
<path d="M994.394 908.199C994.094 919.86 992.834 931.527 990.281 942.879C990.461 944.131 990.641 945.384 990.826 946.675C994.502 934.042 996.422 921.091 997.027 908.021C997.229 907.659 997.31 907.267 997.082 906.826C997.082 906.826 997.082 906.826 997.08 906.787C997.745 889.332 996.125 871.685 993.194 854.412C987.744 822.063 975.835 791.019 953.275 766.771C952.56 766.025 951.132 766.411 950.784 767.285C941.681 790.433 944.856 818.055 952.61 841.147C956.83 853.587 962.854 865.531 970.5 876.228C978.24 887.11 988.106 896.316 994.394 908.199Z" fill="#FFC727"/>
<path d="M955.944 777.605C977.326 812.304 992.201 853.447 994.02 894.437C994.054 895.162 992.83 895.356 992.726 894.612C992.22 890.931 991.658 887.28 991.068 883.644C991.056 883.634 991.042 883.642 991.03 883.63C982.183 875.158 973.104 866.22 966.77 855.631C966.66 855.447 966.926 855.226 967.075 855.396C974.772 864.192 981.95 873.202 990.641 881.045C989.11 871.982 987.295 863.064 985.147 854.275C984.574 853.62 984.017 852.948 983.455 852.288C983.086 851.854 983.702 851.22 984.089 851.654C984.259 851.844 984.43 852.034 984.602 852.223C981.574 840.156 977.875 828.341 973.423 816.732C967.98 810.24 961.896 804.629 957.929 796.807C957.833 796.618 958.092 796.471 958.212 796.642C961.399 801.113 964.483 805.613 968.1 809.765C969.54 811.419 971.122 812.964 972.617 814.577C967.752 802.186 961.978 790.035 955.111 778.09C954.809 777.552 955.62 777.082 955.944 777.605Z" fill="#263238"/>
<path d="M960.264 820.409C967.176 829.709 975.05 838.584 981.475 848.196C981.66 848.472 981.257 848.755 981.029 848.539C972.773 840.795 965.789 830.22 959.798 820.68C959.611 820.383 960.065 820.138 960.264 820.409Z" fill="#263238"/>
<path d="M982.445 850.351L982.738 850.646C982.942 850.85 982.625 851.167 982.421 850.963L982.126 850.668C981.922 850.464 982.241 850.147 982.445 850.351Z" fill="#263238"/>
<path d="M922.445 844.313C924.163 862.167 933.554 883.491 945.007 897.247C950.083 903.331 956.239 907.987 963.305 911.525C971.23 915.447 979.526 919.961 987.725 923.179C991.558 932.962 994.49 943.21 996.37 953.89C996.634 952.997 996.898 952.063 997.162 951.171C991.901 905.971 962.652 867.336 925.238 842.535C923.89 841.639 922.296 842.787 922.445 844.313Z" fill="#FFC727"/>
<path d="M935.371 857.667C935.107 857.434 935.462 856.959 935.75 857.172C955.577 871.86 973.442 893.275 983.422 915.924C983.695 916.543 982.846 917.083 982.493 916.467C980.755 913.419 978.982 910.455 977.177 907.543C977.167 907.541 977.162 907.551 977.15 907.548C968.611 905.94 960.523 899.931 954.185 894.226C954.014 894.072 954.266 893.82 954.439 893.971C957.749 896.887 961.301 899.556 965.244 901.56C968.724 903.329 972.473 904.443 976.097 905.859C972.931 900.835 969.634 896.019 966.19 891.346C957 888.216 948.25 882.571 940.524 876.919C940.282 876.742 940.495 876.343 940.764 876.507C948.636 881.244 956.4 885.415 964.618 889.258C959.441 882.399 953.837 875.904 947.777 869.623C944.875 868.092 941.93 866.551 939.118 864.912C938.89 864.778 939.038 864.387 939.302 864.475C941.544 865.222 943.826 866.395 945.946 867.739C942.571 864.324 939.096 860.955 935.371 857.667Z" fill="#263238"/>
<path d="M936.166 873.274C936.682 873.603 937.15 873.898 937.606 874.301C937.742 874.423 937.567 874.599 937.423 874.536C936.876 874.296 936.427 874.008 935.923 873.687C935.666 873.521 935.906 873.108 936.166 873.274Z" fill="#263238"/>
<path d="M1055.55 1051.77H953.026L961.303 958.411L963.12 937.822H1045.45L1047.27 958.411L1055.55 1051.77Z" fill="#455A64"/>
<path d="M1047.27 958.411H961.303L963.12 937.822H1045.45L1047.27 958.411Z" fill="#263238"/>
<path d="M1050.36 923.427H958.214V943.803H1050.36V923.427Z" fill="#455A64"/>
<path d="M854.23 320.82C855.427 334.663 845.174 346.858 831.331 348.055C817.488 349.253 805.294 339 804.096 325.157C802.898 311.314 813.151 299.119 826.994 297.922C840.84 296.724 853.032 306.977 854.23 320.82Z" fill="white"/>
<path d="M854.23 320.82C856.39 343.205 829.764 357.353 812.314 343.03C801.216 334.315 799.675 316.627 809.119 306.137C823.846 289.018 852.521 298.399 854.23 320.82ZM854.23 320.82C852.276 298.925 824.438 290.419 810.691 307.459C802.337 317.263 803.71 333.24 813.631 341.462C830.098 355.901 856.073 342.722 854.23 320.82Z" fill="#263238"/>
<path d="M787.57 346.944C788.237 354.648 782.53 361.435 774.826 362.102C767.119 362.77 760.334 357.062 759.667 349.358C759 341.652 764.707 334.867 772.411 334.2C780.115 333.533 786.902 339.237 787.57 346.944Z" fill="white"/>
<path d="M787.57 346.944C788.854 359.424 773.779 367.646 763.944 359.657C757.476 354.763 756.574 344.405 762.108 338.472C770.424 328.906 786.696 334.428 787.57 346.944ZM787.57 346.944C785.448 329.268 759.862 331.618 760.86 349.255C762.9 366.816 788.518 364.721 787.57 346.944Z" fill="#263238"/>
<path d="M1073.95 212.945C1078.84 253.214 1050.17 289.824 1009.9 294.746C996.703 296.347 983.875 294.346 972.461 289.517C962.738 302.222 948.096 311.143 930.96 313.236C908.441 315.974 887.244 306.161 874.416 289.301C871.771 290.1 869.002 290.686 866.172 291.024C838.762 294.346 813.842 274.843 810.521 247.433C808.982 234.665 812.366 222.454 819.228 212.7C811.138 202.454 805.692 189.965 804 176.09C799.109 135.79 827.779 99.18 868.051 94.2888C886.387 92.0736 903.953 96.78 918.134 106.409C927.857 94.2576 942.161 85.7664 958.836 83.736C987.631 80.2296 1014.21 97.2096 1023.96 123.206C1026.48 122.345 1029.13 121.759 1031.87 121.423C1053.99 118.747 1074.08 134.498 1076.75 156.586C1078.23 168.706 1074.17 180.242 1066.54 188.611C1070.35 196.025 1072.91 204.206 1073.95 212.945Z" fill="white"/>
<path d="M1073.95 212.945C1077.15 238.632 1066.14 265.056 1045.35 280.589C1024.95 296.362 996.043 300.094 972.295 289.91L972.802 289.776C961.298 305.03 942.521 314.378 923.393 314.254C904.219 314.39 885.442 304.992 873.828 289.75L874.634 290.011C870.883 291.173 866.995 291.835 863.078 292.018C820.817 294.658 794.081 246.802 818.342 212.074L818.378 213.372C782.146 167.93 810.871 99.7008 868.562 93.3576C886.018 91.3368 904.102 95.868 918.55 105.804L917.568 105.953C947.542 68.5416 1007.53 78.1584 1024.31 123.079L1023.85 122.858C1027.03 121.805 1030.33 121.111 1033.67 120.955C1048.14 119.688 1062.91 127.106 1070.68 139.358C1080.69 154.289 1078.92 175.591 1066.6 188.657C1070.42 195.828 1072.98 204.607 1073.95 212.945ZM1073.95 212.945C1072.92 204.468 1070.39 196.174 1066.45 188.599C1078.64 175.558 1080.33 154.363 1070.31 139.598C1060.74 124.483 1040.57 117.581 1023.75 123.67C1007.25 79.452 948.108 69.7944 918.708 106.867L918.286 107.398L917.724 107.016C903.504 97.356 885.794 93.0336 868.757 95.1024C812.69 101.59 785.311 167.707 820.082 212.026L820.586 212.664L820.118 213.324C796.601 246.66 822.235 292.812 862.99 290.472C866.964 290.314 870.902 289.632 874.702 288.444C885.962 303.641 904.445 313.123 923.398 313.085C942.206 313.31 960.718 304.212 972.127 289.258L972.331 288.994L972.634 289.123C996.089 299.345 1024.8 295.774 1045.09 280.248C1065.9 264.869 1077 238.577 1073.95 212.945Z" fill="#263238"/>
<path d="M948.607 208.922L948.036 219.07C947.789 223.435 944.328 226.529 939.955 226.282C935.902 226.054 932.496 222.574 932.743 218.208L933.658 201.974C933.667 201.823 933.826 201.83 933.833 201.672C933.682 201.511 933.682 201.511 933.691 201.353C933.919 197.292 937.711 193.906 941.765 194.134C951.6 194.688 960 187.334 960.545 177.658C961.099 167.83 953.568 159.732 943.735 159.178C937.337 158.818 931.526 161.938 928.27 166.918C925.879 170.544 921.127 171.526 917.501 169.128C914.033 166.747 913.044 162.146 915.439 158.527C921.6 149.167 932.58 143.208 944.594 143.885C962.702 144.905 976.697 160.409 975.677 178.51C974.81 193.961 963.31 206.309 948.607 208.922ZM946.68 243.096L946.522 245.904C946.274 250.274 942.814 253.368 938.441 253.123C934.387 252.895 930.982 249.415 931.229 245.042L931.387 242.234C931.625 238.022 935.407 234.794 939.461 235.022C943.834 235.267 946.918 238.884 946.68 243.096Z" fill="#FFC727"/>
</svg>
